<mxfile host="app.diagrams.net" agent="Mozilla/5.0 (Windows NT 10.0; Win64; x64) AppleWebKit/537.36 (KHTML, like Gecko) Chrome/131.0.0.0 Safari/537.36" version="24.9.1">
  <diagram id="sQ8EXhfYu_Z4RW1TYD9f" name="Page-1">
    <mxGraphModel dx="1434" dy="746" grid="1" gridSize="10" guides="1" tooltips="1" connect="0" arrows="1" fold="1" page="1" pageScale="1" pageWidth="827" pageHeight="1169" math="0" shadow="0">
      <root>
        <mxCell id="0" />
        <mxCell id="1" parent="0" />
        <mxCell id="wOnGFkAYj0Utu0_wV-MN-16" value="`" style="swimlane;fillColor=#dae8fc;strokeColor=#6c8ebf;" parent="1" vertex="1">
          <mxGeometry x="270" y="50" width="859" height="950" as="geometry" />
        </mxCell>
        <mxCell id="-H19STxGfVn_PWDj7dHE-33" value="탐험 능력 강화시 애니메이션 추가" style="rounded=1;whiteSpace=wrap;html=1;" parent="wOnGFkAYj0Utu0_wV-MN-16" vertex="1">
          <mxGeometry x="20" y="130" width="159" height="60" as="geometry" />
        </mxCell>
        <mxCell id="sR531eOXUpZFUP8H-u2r-2" value="결과창 아이콘 색상 변경" style="rounded=1;whiteSpace=wrap;html=1;" vertex="1" parent="wOnGFkAYj0Utu0_wV-MN-16">
          <mxGeometry x="20" y="210" width="159" height="60" as="geometry" />
        </mxCell>
        <mxCell id="wOnGFkAYj0Utu0_wV-MN-17" value="분석 | 논의" style="swimlane;strokeColor=#82b366;fillColor=#D5E8D4;" parent="1" vertex="1">
          <mxGeometry x="30" y="50" width="230" height="270" as="geometry" />
        </mxCell>
        <mxCell id="MTrl5ynQiznJmTlUDSWs-4" value="대기 | 요청" style="swimlane;strokeColor=#d79b00;fillColor=#ffe6cc;" parent="1" vertex="1">
          <mxGeometry x="30" y="330" width="230" height="380" as="geometry" />
        </mxCell>
        <mxCell id="Hl0CqrcyUsH3RmlXjL36-31" value="버튼 사운드 추가 - 후순위&lt;br&gt;[기획팀]" style="rounded=1;whiteSpace=wrap;html=1;" parent="MTrl5ynQiznJmTlUDSWs-4" vertex="1">
          <mxGeometry x="35.5" y="40" width="159" height="60" as="geometry" />
        </mxCell>
        <mxCell id="hDPYIisuoytdxOGGVnbc-3" value="    폐기 | 완료" style="swimlane;strokeColor=#666666;fillColor=#f5f5f5;fontColor=#333333;align=left;" parent="1" vertex="1">
          <mxGeometry x="1420" y="50" width="860" height="940" as="geometry">
            <mxRectangle x="1130" y="50" width="90" height="23" as="alternateBounds" />
          </mxGeometry>
        </mxCell>
        <mxCell id="dMWVsQm3UKa0kzxUu898-2" value="메인씬 단계 표기 조정" style="rounded=1;whiteSpace=wrap;html=1;" parent="hDPYIisuoytdxOGGVnbc-3" vertex="1">
          <mxGeometry x="10" y="30" width="159" height="60" as="geometry" />
        </mxCell>
        <mxCell id="Hl0CqrcyUsH3RmlXjL36-9" value="메인씬의 탐험 숙련도 갱신 안되는 문제 수정" style="rounded=1;whiteSpace=wrap;html=1;" parent="hDPYIisuoytdxOGGVnbc-3" vertex="1">
          <mxGeometry x="10" y="100" width="159" height="60" as="geometry" />
        </mxCell>
        <mxCell id="Hl0CqrcyUsH3RmlXjL36-11" value="메인씬에 재화 반영" style="rounded=1;whiteSpace=wrap;html=1;" parent="hDPYIisuoytdxOGGVnbc-3" vertex="1">
          <mxGeometry x="10" y="170" width="159" height="60" as="geometry" />
        </mxCell>
        <mxCell id="Hl0CqrcyUsH3RmlXjL36-12" value="워프 이펙트 나올때 조이스틱 비활성화" style="rounded=1;whiteSpace=wrap;html=1;" parent="hDPYIisuoytdxOGGVnbc-3" vertex="1">
          <mxGeometry x="10" y="240" width="159" height="60" as="geometry" />
        </mxCell>
        <mxCell id="Hl0CqrcyUsH3RmlXjL36-5" value="스테이지 완료후 복귀 플로우 서버타도록 수정" style="rounded=1;whiteSpace=wrap;html=1;" parent="hDPYIisuoytdxOGGVnbc-3" vertex="1">
          <mxGeometry x="10" y="310" width="159" height="60" as="geometry" />
        </mxCell>
        <mxCell id="Hl0CqrcyUsH3RmlXjL36-10" value="선택창 버튼에 텍스트 추가" style="rounded=1;whiteSpace=wrap;html=1;" parent="hDPYIisuoytdxOGGVnbc-3" vertex="1">
          <mxGeometry x="10" y="380" width="159" height="60" as="geometry" />
        </mxCell>
        <mxCell id="Hl0CqrcyUsH3RmlXjL36-8" value="시작 이벤트와 거래 이벤트간 기획 충돌 해결&lt;br&gt;[기획팀]" style="rounded=1;whiteSpace=wrap;html=1;" parent="hDPYIisuoytdxOGGVnbc-3" vertex="1">
          <mxGeometry x="10" y="450" width="159" height="60" as="geometry" />
        </mxCell>
        <mxCell id="Hl0CqrcyUsH3RmlXjL36-21" value="MagicRegionEventReward 위젯 보상 없을 경우에 대한 캔버스 추가" style="rounded=1;whiteSpace=wrap;html=1;" parent="hDPYIisuoytdxOGGVnbc-3" vertex="1">
          <mxGeometry x="10" y="520" width="159" height="60" as="geometry" />
        </mxCell>
        <mxCell id="Hl0CqrcyUsH3RmlXjL36-2" value="전투 결과창 종료시 유저 경험치 위젯 잠시 노출&lt;br&gt;[광래님]" style="rounded=1;whiteSpace=wrap;html=1;" parent="hDPYIisuoytdxOGGVnbc-3" vertex="1">
          <mxGeometry x="10" y="590" width="159" height="60" as="geometry" />
        </mxCell>
        <mxCell id="Hl0CqrcyUsH3RmlXjL36-17" value="거래 아이템 구매 후 목록 갱신" style="rounded=1;whiteSpace=wrap;html=1;" parent="hDPYIisuoytdxOGGVnbc-3" vertex="1">
          <mxGeometry x="10" y="660" width="159" height="60" as="geometry" />
        </mxCell>
        <mxCell id="Hl0CqrcyUsH3RmlXjL36-7" value="탐험 능력 강화창 스크롤 화면 사이즈와 독립적이도록 요청&lt;div&gt;[UI팀]&lt;/div&gt;" style="rounded=1;whiteSpace=wrap;html=1;" parent="hDPYIisuoytdxOGGVnbc-3" vertex="1">
          <mxGeometry x="10" y="730" width="159" height="60" as="geometry" />
        </mxCell>
        <mxCell id="Hl0CqrcyUsH3RmlXjL36-13" value="MagicRegionPlayScene&lt;br&gt;각 이벤트 탐험정보 확인 위젯 추가시 해당 위젯으로 돌아가는 위젯 추가 요청&lt;br&gt;&lt;div&gt;[UI팀]&lt;/div&gt;" style="rounded=1;whiteSpace=wrap;html=1;" parent="hDPYIisuoytdxOGGVnbc-3" vertex="1">
          <mxGeometry x="10" y="800" width="159" height="100" as="geometry" />
        </mxCell>
        <mxCell id="Hl0CqrcyUsH3RmlXjL36-22" value="보상창 텍스트 색상 관련 문의(리롤 빠진거, 아이템 항목에서 빨간색으로 안나오는거)&lt;div&gt;[UI팀]&lt;/div&gt;" style="rounded=1;whiteSpace=wrap;html=1;" parent="hDPYIisuoytdxOGGVnbc-3" vertex="1">
          <mxGeometry x="180" y="100" width="159" height="60" as="geometry" />
        </mxCell>
        <mxCell id="Hl0CqrcyUsH3RmlXjL36-24" value="MagicRegionEventPopup&lt;br&gt;갱신 애니메이션 없음&lt;div&gt;[UI팀]&lt;/div&gt;" style="rounded=1;whiteSpace=wrap;html=1;" parent="hDPYIisuoytdxOGGVnbc-3" vertex="1">
          <mxGeometry x="180" y="170" width="159" height="60" as="geometry" />
        </mxCell>
        <mxCell id="Hl0CqrcyUsH3RmlXjL36-25" value="MagicRegionEventRewardPopup 보상 없을때의 캔버스 필요&lt;br&gt;[UI팀]" style="rounded=1;whiteSpace=wrap;html=1;" parent="hDPYIisuoytdxOGGVnbc-3" vertex="1">
          <mxGeometry x="180" y="240" width="159" height="60" as="geometry" />
        </mxCell>
        <mxCell id="dMWVsQm3UKa0kzxUu898-1" value="리롤 패킷 구현" style="rounded=1;whiteSpace=wrap;html=1;" parent="hDPYIisuoytdxOGGVnbc-3" vertex="1">
          <mxGeometry x="180" y="30" width="159" height="60" as="geometry" />
        </mxCell>
        <mxCell id="Hl0CqrcyUsH3RmlXjL36-6" value="전투시 임시 페이드 노출되는 현상 수정&lt;div&gt;[기획팀]&lt;/div&gt;" style="rounded=1;whiteSpace=wrap;html=1;" parent="hDPYIisuoytdxOGGVnbc-3" vertex="1">
          <mxGeometry x="180" y="310" width="159" height="60" as="geometry" />
        </mxCell>
        <mxCell id="Hl0CqrcyUsH3RmlXjL36-15" value="캠프 강화 이벤트 추가" style="rounded=1;whiteSpace=wrap;html=1;" parent="hDPYIisuoytdxOGGVnbc-3" vertex="1">
          <mxGeometry x="180" y="380" width="159" height="60" as="geometry" />
        </mxCell>
        <mxCell id="Hl0CqrcyUsH3RmlXjL36-26" value="강화 가능한 탐험 효과가 없을때 어떻게 할지" style="rounded=1;whiteSpace=wrap;html=1;" parent="hDPYIisuoytdxOGGVnbc-3" vertex="1">
          <mxGeometry x="180" y="450" width="159" height="60" as="geometry" />
        </mxCell>
        <mxCell id="Hl0CqrcyUsH3RmlXjL36-27" value="오른쪽 표기는 선택 가능 &amp;amp; 불가능과 연동 되는지?" style="rounded=1;whiteSpace=wrap;html=1;" parent="hDPYIisuoytdxOGGVnbc-3" vertex="1">
          <mxGeometry x="180" y="520" width="159" height="60" as="geometry" />
        </mxCell>
        <mxCell id="-H19STxGfVn_PWDj7dHE-1" value="기물 효과및 탐험 효과 아이디만으로 효과 텍스트 찾도록수정" style="rounded=1;whiteSpace=wrap;html=1;" parent="hDPYIisuoytdxOGGVnbc-3" vertex="1">
          <mxGeometry x="180" y="590" width="159" height="60" as="geometry" />
        </mxCell>
        <mxCell id="Hl0CqrcyUsH3RmlXjL36-14" value="캠프 편성 이벤트 추가" style="rounded=1;whiteSpace=wrap;html=1;" parent="hDPYIisuoytdxOGGVnbc-3" vertex="1">
          <mxGeometry x="180" y="660" width="159" height="60" as="geometry" />
        </mxCell>
        <mxCell id="Hl0CqrcyUsH3RmlXjL36-30" value="전투 이어하기 구현" style="rounded=1;whiteSpace=wrap;html=1;" parent="hDPYIisuoytdxOGGVnbc-3" vertex="1">
          <mxGeometry x="180" y="730" width="159" height="60" as="geometry" />
        </mxCell>
        <mxCell id="-H19STxGfVn_PWDj7dHE-2" value="Score 남은 시간 표기" style="rounded=1;whiteSpace=wrap;html=1;" parent="hDPYIisuoytdxOGGVnbc-3" vertex="1">
          <mxGeometry x="180" y="800" width="159" height="60" as="geometry" />
        </mxCell>
        <mxCell id="-H19STxGfVn_PWDj7dHE-8" value="스코어 리워드 팝업 Resource_Widget 테이블에 추가 요청&lt;br&gt;[기획팀 해성님]" style="rounded=1;whiteSpace=wrap;html=1;" parent="hDPYIisuoytdxOGGVnbc-3" vertex="1">
          <mxGeometry x="180" y="870" width="159" height="60" as="geometry" />
        </mxCell>
        <mxCell id="Hl0CqrcyUsH3RmlXjL36-23" value="리롤 어빌리티 Common테이블 통해 체크" style="rounded=1;whiteSpace=wrap;html=1;" parent="hDPYIisuoytdxOGGVnbc-3" vertex="1">
          <mxGeometry x="350" y="30" width="159" height="60" as="geometry" />
        </mxCell>
        <mxCell id="-H19STxGfVn_PWDj7dHE-10" value="리워드 팝업 아이템 아이콘 이름 제대로 노출되지 않던 현상 수정" style="rounded=1;whiteSpace=wrap;html=1;" parent="hDPYIisuoytdxOGGVnbc-3" vertex="1">
          <mxGeometry x="350" y="100" width="159" height="60" as="geometry" />
        </mxCell>
        <mxCell id="-H19STxGfVn_PWDj7dHE-12" value="교환소 연결" style="rounded=1;whiteSpace=wrap;html=1;" parent="hDPYIisuoytdxOGGVnbc-3" vertex="1">
          <mxGeometry x="350" y="170" width="159" height="60" as="geometry" />
        </mxCell>
        <mxCell id="-H19STxGfVn_PWDj7dHE-9" value="ScoreReward아이콘들이 갯수에 맞춰 위치가 정렬되도록 수정 요청&lt;br&gt;[UI팀]" style="rounded=1;whiteSpace=wrap;html=1;" parent="hDPYIisuoytdxOGGVnbc-3" vertex="1">
          <mxGeometry x="350" y="240" width="159" height="60" as="geometry" />
        </mxCell>
        <mxCell id="Hl0CqrcyUsH3RmlXjL36-28" value="MagicRegionItemIcon 위젯에서 CPP_Txt_Upgrade에 들어갈 로컬 키 요청&lt;br&gt;[기획팀]" style="rounded=1;whiteSpace=wrap;html=1;" parent="hDPYIisuoytdxOGGVnbc-3" vertex="1">
          <mxGeometry x="350" y="310" width="159" height="60" as="geometry" />
        </mxCell>
        <mxCell id="-H19STxGfVn_PWDj7dHE-6" value="보상 위젯 생성시 연출 애니메이션 추가" style="rounded=1;whiteSpace=wrap;html=1;" parent="hDPYIisuoytdxOGGVnbc-3" vertex="1">
          <mxGeometry x="350" y="380" width="159" height="60" as="geometry" />
        </mxCell>
        <mxCell id="-H19STxGfVn_PWDj7dHE-14" value="이벤트 위젯 접어두기 기능 추가" style="rounded=1;whiteSpace=wrap;html=1;" parent="hDPYIisuoytdxOGGVnbc-3" vertex="1">
          <mxGeometry x="350" y="450" width="159" height="60" as="geometry" />
        </mxCell>
        <mxCell id="Hl0CqrcyUsH3RmlXjL36-29" value="보상에서 갯수 다 못채운 상태에서 진행시 노티" style="rounded=1;whiteSpace=wrap;html=1;" parent="hDPYIisuoytdxOGGVnbc-3" vertex="1">
          <mxGeometry x="350" y="520" width="159" height="60" as="geometry" />
        </mxCell>
        <mxCell id="-H19STxGfVn_PWDj7dHE-15" value="노티 팝업에서 체크박스 안눌리는 현상 수정" style="rounded=1;whiteSpace=wrap;html=1;" parent="hDPYIisuoytdxOGGVnbc-3" vertex="1">
          <mxGeometry x="350" y="590" width="159" height="60" as="geometry" />
        </mxCell>
        <mxCell id="-H19STxGfVn_PWDj7dHE-16" value="노티에서 오늘은 그만이 작동하지 않는 현상 수정" style="rounded=1;whiteSpace=wrap;html=1;" parent="hDPYIisuoytdxOGGVnbc-3" vertex="1">
          <mxGeometry x="350" y="660" width="159" height="60" as="geometry" />
        </mxCell>
        <mxCell id="Hl0CqrcyUsH3RmlXjL36-33" value="업그레이드에서 갯수 다 못채운 상태에서 진행시 노티" style="rounded=1;whiteSpace=wrap;html=1;" parent="hDPYIisuoytdxOGGVnbc-3" vertex="1">
          <mxGeometry x="350" y="730" width="159" height="60" as="geometry" />
        </mxCell>
        <mxCell id="Hl0CqrcyUsH3RmlXjL36-34" value="강화시 효과 설명에 다음 효과 설명 추가" style="rounded=1;whiteSpace=wrap;html=1;" parent="hDPYIisuoytdxOGGVnbc-3" vertex="1">
          <mxGeometry x="350" y="800" width="159" height="60" as="geometry" />
        </mxCell>
        <mxCell id="Hl0CqrcyUsH3RmlXjL36-1" value="결과창 정보 채워주기" style="rounded=1;whiteSpace=wrap;html=1;" parent="hDPYIisuoytdxOGGVnbc-3" vertex="1">
          <mxGeometry x="350" y="870" width="159" height="60" as="geometry" />
        </mxCell>
        <mxCell id="-H19STxGfVn_PWDj7dHE-13" value="ScorePopup 불필요한 서브 위젯 병합 요청&lt;br&gt;[UI팀]" style="rounded=1;whiteSpace=wrap;html=1;" parent="hDPYIisuoytdxOGGVnbc-3" vertex="1">
          <mxGeometry x="520" y="30" width="159" height="60" as="geometry" />
        </mxCell>
        <mxCell id="-H19STxGfVn_PWDj7dHE-18" value="추가 편성에는 Pause 없어도 되는 건지?" style="rounded=1;whiteSpace=wrap;html=1;" parent="hDPYIisuoytdxOGGVnbc-3" vertex="1">
          <mxGeometry x="520" y="100" width="159" height="60" as="geometry" />
        </mxCell>
        <mxCell id="-H19STxGfVn_PWDj7dHE-20" value="강화창에서 업그레이드할 항목이 없을 때 나오는 위젯 위치가 올바른지 확인&lt;br&gt;[기획팀 경천님]" style="rounded=1;whiteSpace=wrap;html=1;" parent="hDPYIisuoytdxOGGVnbc-3" vertex="1">
          <mxGeometry x="520" y="170" width="159" height="60" as="geometry" />
        </mxCell>
        <mxCell id="-H19STxGfVn_PWDj7dHE-3" value="Score 보상 위젯 추가" style="rounded=1;whiteSpace=wrap;html=1;" parent="hDPYIisuoytdxOGGVnbc-3" vertex="1">
          <mxGeometry x="520" y="240" width="159" height="60" as="geometry" />
        </mxCell>
        <mxCell id="-H19STxGfVn_PWDj7dHE-4" value="스코어 초기화 시간 관련 로컬 잘못 나오는 현상 수정" style="rounded=1;whiteSpace=wrap;html=1;" parent="hDPYIisuoytdxOGGVnbc-3" vertex="1">
          <mxGeometry x="520" y="310" width="159" height="60" as="geometry" />
        </mxCell>
        <mxCell id="-H19STxGfVn_PWDj7dHE-25" value="타이틀 토스트 추가&lt;div&gt;MAgicREgionStageTitleToast&lt;/div&gt;" style="rounded=1;whiteSpace=wrap;html=1;" parent="hDPYIisuoytdxOGGVnbc-3" vertex="1">
          <mxGeometry x="520" y="380" width="159" height="60" as="geometry" />
        </mxCell>
        <mxCell id="-H19STxGfVn_PWDj7dHE-27" value="기물 효과 적용 매직넘버로 할 것인지?&lt;br&gt;[기획팀 경천님]" style="rounded=1;whiteSpace=wrap;html=1;" parent="hDPYIisuoytdxOGGVnbc-3" vertex="1">
          <mxGeometry x="520" y="450" width="159" height="60" as="geometry" />
        </mxCell>
        <mxCell id="-H19STxGfVn_PWDj7dHE-29" value="스위칭 애니메이션에 빽판이 있긴해야할듯&lt;br&gt;[UI팀 나영님]" style="rounded=1;whiteSpace=wrap;html=1;" parent="hDPYIisuoytdxOGGVnbc-3" vertex="1">
          <mxGeometry x="520" y="520" width="159" height="60" as="geometry" />
        </mxCell>
        <mxCell id="-H19STxGfVn_PWDj7dHE-26" value="Score 보상 에러패킷 확인 및 수정&lt;br&gt;[민재님]" style="rounded=1;whiteSpace=wrap;html=1;" parent="hDPYIisuoytdxOGGVnbc-3" vertex="1">
          <mxGeometry x="520" y="590" width="159" height="60" as="geometry" />
        </mxCell>
        <mxCell id="-H19STxGfVn_PWDj7dHE-28" value="보상과 타이틀 토스트 겹칠때 어떻게 할 것인지?" style="rounded=1;whiteSpace=wrap;html=1;" parent="hDPYIisuoytdxOGGVnbc-3" vertex="1">
          <mxGeometry x="520" y="660" width="159" height="60" as="geometry" />
        </mxCell>
        <mxCell id="-H19STxGfVn_PWDj7dHE-22" value="모드 변경시 띠지 전환 애니메이션 추가" style="rounded=1;whiteSpace=wrap;html=1;" parent="hDPYIisuoytdxOGGVnbc-3" vertex="1">
          <mxGeometry x="520" y="730" width="159" height="60" as="geometry" />
        </mxCell>
        <mxCell id="-H19STxGfVn_PWDj7dHE-30" value="Score 없을 때 위젯 Collapse 처리" style="rounded=1;whiteSpace=wrap;html=1;" parent="hDPYIisuoytdxOGGVnbc-3" vertex="1">
          <mxGeometry x="520" y="800" width="159" height="60" as="geometry" />
        </mxCell>
        <mxCell id="-H19STxGfVn_PWDj7dHE-11" value="Score 보상 레드닷 추가" style="rounded=1;whiteSpace=wrap;html=1;" parent="hDPYIisuoytdxOGGVnbc-3" vertex="1">
          <mxGeometry x="520" y="870" width="159" height="60" as="geometry" />
        </mxCell>
        <mxCell id="-H19STxGfVn_PWDj7dHE-17" value="거래 예외 규칙 적용" style="rounded=1;whiteSpace=wrap;html=1;" parent="hDPYIisuoytdxOGGVnbc-3" vertex="1">
          <mxGeometry x="690" y="100" width="159" height="60" as="geometry" />
        </mxCell>
        <mxCell id="-H19STxGfVn_PWDj7dHE-31" value="Score 기간 지났을 경우 사용자 킥 팝업 추가" style="rounded=1;whiteSpace=wrap;html=1;" parent="hDPYIisuoytdxOGGVnbc-3" vertex="1">
          <mxGeometry x="690" y="170" width="159" height="60" as="geometry" />
        </mxCell>
        <mxCell id="Hl0CqrcyUsH3RmlXjL36-18" value="스테이지 완료 후 입장시 이전 스테이지 선택" style="rounded=1;whiteSpace=wrap;html=1;" parent="hDPYIisuoytdxOGGVnbc-3" vertex="1">
          <mxGeometry x="690" y="240" width="159" height="60" as="geometry" />
        </mxCell>
        <mxCell id="-H19STxGfVn_PWDj7dHE-36" value="Score 상세 정보 팝업 Resource_Widget에 등록 요청&lt;br&gt;[기획팀]" style="rounded=1;whiteSpace=wrap;html=1;" parent="hDPYIisuoytdxOGGVnbc-3" vertex="1">
          <mxGeometry x="690" y="310" width="159" height="60" as="geometry" />
        </mxCell>
        <mxCell id="-H19STxGfVn_PWDj7dHE-35" value="중단 기능 추가" style="rounded=1;whiteSpace=wrap;html=1;" parent="hDPYIisuoytdxOGGVnbc-3" vertex="1">
          <mxGeometry x="690" y="380" width="159" height="60" as="geometry" />
        </mxCell>
        <mxCell id="-H19STxGfVn_PWDj7dHE-32" value="Score 보상 상세 정보 팝업 추가" style="rounded=1;whiteSpace=wrap;html=1;" parent="hDPYIisuoytdxOGGVnbc-3" vertex="1">
          <mxGeometry x="690" y="450" width="159" height="60" as="geometry" />
        </mxCell>
        <mxCell id="-H19STxGfVn_PWDj7dHE-24" value="민재님 발견한 크래시 이슈 수정" style="rounded=1;whiteSpace=wrap;html=1;" parent="hDPYIisuoytdxOGGVnbc-3" vertex="1">
          <mxGeometry x="690" y="520" width="159" height="60" as="geometry" />
        </mxCell>
        <mxCell id="Hl0CqrcyUsH3RmlXjL36-16" value="거래 아이템 정렬" style="rounded=1;whiteSpace=wrap;html=1;" parent="hDPYIisuoytdxOGGVnbc-3" vertex="1">
          <mxGeometry x="690" y="590" width="159" height="60" as="geometry" />
        </mxCell>
        <mxCell id="-H19STxGfVn_PWDj7dHE-37" value="거래이벤트 하단 텍스트 잘못 나오는 문제 수정" style="rounded=1;whiteSpace=wrap;html=1;" parent="hDPYIisuoytdxOGGVnbc-3" vertex="1">
          <mxGeometry x="690" y="660" width="159" height="60" as="geometry" />
        </mxCell>
        <mxCell id="-H19STxGfVn_PWDj7dHE-34" value="운영툴 잠금 처리" style="rounded=1;whiteSpace=wrap;html=1;" parent="hDPYIisuoytdxOGGVnbc-3" vertex="1">
          <mxGeometry x="690" y="730" width="159" height="60" as="geometry" />
        </mxCell>
        <mxCell id="Hl0CqrcyUsH3RmlXjL36-19" value="베이스포인트씬에서 입장시 카메라 위치정보가 초기화되지 않는 현상 수정" style="rounded=1;whiteSpace=wrap;html=1;" parent="hDPYIisuoytdxOGGVnbc-3" vertex="1">
          <mxGeometry x="690" y="800" width="159" height="60" as="geometry" />
        </mxCell>
        <mxCell id="sR531eOXUpZFUP8H-u2r-1" value="사건 UI 노출시 플레이씬 UI 미노출" style="rounded=1;whiteSpace=wrap;html=1;" vertex="1" parent="hDPYIisuoytdxOGGVnbc-3">
          <mxGeometry x="690" y="870" width="159" height="60" as="geometry" />
        </mxCell>
        <mxCell id="6kkVd8V_ymKgZ0_L0vxy-3" value="My Comment" style="swimlane;" parent="1" vertex="1">
          <mxGeometry x="30" y="1010" width="1710" height="260" as="geometry">
            <mxRectangle x="49" y="720" width="100" height="23" as="alternateBounds" />
          </mxGeometry>
        </mxCell>
        <mxCell id="KfCYHrgsOKh0RXw9eGPa-2" value="&lt;h1&gt;Memo&lt;/h1&gt;&lt;div&gt;&lt;br&gt;&lt;/div&gt;" style="text;html=1;strokeColor=none;fillColor=none;spacing=5;spacingTop=-20;whiteSpace=wrap;overflow=hidden;rounded=0;align=left;" parent="6kkVd8V_ymKgZ0_L0vxy-3" vertex="1">
          <mxGeometry x="1" y="20" width="1070" height="240" as="geometry" />
        </mxCell>
        <mxCell id="wOnGFkAYj0Utu0_wV-MN-18" value="고려" style="swimlane;fillColor=#e1d5e7;strokeColor=#9673a6;" parent="1" vertex="1">
          <mxGeometry x="28" y="720" width="231" height="310" as="geometry" />
        </mxCell>
        <mxCell id="-H19STxGfVn_PWDj7dHE-21" value="탐험 능력 강화시 해당 능력 포커싱" style="rounded=1;whiteSpace=wrap;html=1;" parent="wOnGFkAYj0Utu0_wV-MN-18" vertex="1">
          <mxGeometry x="22" y="40" width="159" height="60" as="geometry" />
        </mxCell>
        <mxCell id="oumLD8d3DvaTa1NXrWpt-27" value="Preset" style="swimlane;horizontal=0;" parent="1" vertex="1">
          <mxGeometry x="1130" y="50" width="270" height="380" as="geometry" />
        </mxCell>
        <mxCell id="oumLD8d3DvaTa1NXrWpt-32" value="" style="swimlane;fillColor=#dae8fc;strokeColor=#6c8ebf;" parent="oumLD8d3DvaTa1NXrWpt-27" vertex="1" collapsed="1">
          <mxGeometry x="31.5" y="180" width="50" height="40" as="geometry">
            <mxRectangle x="31.5" y="180" width="219.5" height="60" as="alternateBounds" />
          </mxGeometry>
        </mxCell>
        <mxCell id="oumLD8d3DvaTa1NXrWpt-34" value="" style="swimlane;" parent="oumLD8d3DvaTa1NXrWpt-27" vertex="1" collapsed="1">
          <mxGeometry x="31" y="260" width="50" height="40" as="geometry">
            <mxRectangle x="31" y="260" width="219" height="50" as="alternateBounds" />
          </mxGeometry>
        </mxCell>
        <mxCell id="Fb32EvJjGHJRLybvlaYY-3" value="Text" style="text;html=1;align=left;verticalAlign=middle;resizable=0;points=[];autosize=1;strokeColor=none;" parent="oumLD8d3DvaTa1NXrWpt-27" vertex="1">
          <mxGeometry x="220" y="20" width="40" height="20" as="geometry" />
        </mxCell>
        <mxCell id="tH88tRurDEZZYX3UZ1Wb-1" value="" style="rounded=1;whiteSpace=wrap;html=1;" parent="oumLD8d3DvaTa1NXrWpt-27" vertex="1">
          <mxGeometry x="50" y="20" width="159" height="60" as="geometry" />
        </mxCell>
        <mxCell id="8vmb4RLjWRvc2X2qJKQM-1" value="" style="rounded=1;whiteSpace=wrap;html=1;fillColor=#f8cecc;strokeColor=#b85450;" parent="oumLD8d3DvaTa1NXrWpt-27" vertex="1">
          <mxGeometry x="101" y="210" width="159" height="60" as="geometry" />
        </mxCell>
        <mxCell id="Lh-9QCx4mtw0z8OulHlL-3" value="" style="group" parent="oumLD8d3DvaTa1NXrWpt-27" vertex="1" connectable="0">
          <mxGeometry x="40" y="100" width="220" height="100" as="geometry" />
        </mxCell>
        <mxCell id="Lh-9QCx4mtw0z8OulHlL-2" value="" style="rounded=0;whiteSpace=wrap;html=1;" parent="Lh-9QCx4mtw0z8OulHlL-3" vertex="1">
          <mxGeometry x="100" y="80" width="120" height="20" as="geometry" />
        </mxCell>
        <mxCell id="oumLD8d3DvaTa1NXrWpt-28" value="" style="rounded=1;whiteSpace=wrap;html=1;" parent="Lh-9QCx4mtw0z8OulHlL-3" vertex="1">
          <mxGeometry width="159" height="60" as="geometry" />
        </mxCell>
        <mxCell id="oumLD8d3DvaTa1NXrWpt-29" value="" style="rounded=0;whiteSpace=wrap;html=1;" parent="Lh-9QCx4mtw0z8OulHlL-3" vertex="1">
          <mxGeometry x="100" y="60" width="120" height="20" as="geometry" />
        </mxCell>
        <mxCell id="oumLD8d3DvaTa1NXrWpt-30" value="" style="rounded=0;whiteSpace=wrap;html=1;" parent="Lh-9QCx4mtw0z8OulHlL-3" vertex="1">
          <mxGeometry x="100" y="40" width="120" height="20" as="geometry" />
        </mxCell>
        <mxCell id="9A0mLHsorhuxDrabdEOj-9" value="에러 | 수정" style="swimlane;fillColor=#f8cecc;strokeColor=#b85450;startSize=23;" parent="1" vertex="1">
          <mxGeometry x="1130" y="440" width="270" height="560" as="geometry">
            <mxRectangle x="620" y="440" width="90" height="23" as="alternateBounds" />
          </mxGeometry>
        </mxCell>
        <mxCell id="-H19STxGfVn_PWDj7dHE-23" value="기물 효과 적용" style="rounded=1;whiteSpace=wrap;html=1;" parent="1" vertex="1">
          <mxGeometry x="2110" y="80" width="159" height="60" as="geometry" />
        </mxCell>
      </root>
    </mxGraphModel>
  </diagram>
</mxfile>
